<?xml version="1.0" standalone="no"?>
<!DOCTYPE svg PUBLIC "-//W3C//DTD SVG 20010904//EN"
 "http://www.w3.org/TR/2001/REC-SVG-20010904/DTD/svg10.dtd">
<svg version="1.0" xmlns="http://www.w3.org/2000/svg"
 width="3840.000000pt" height="3840.000000pt" viewBox="0 0 3840.000000 3840.000000"
 preserveAspectRatio="xMidYMid meet">
<metadata>
Created by potrace 1.11, written by Peter Selinger 2001-2013
</metadata>
<g transform="translate(0.000000,3840.000000) scale(0.100000,-0.100000)"
fill="#000000" stroke="none">
<path d="M19868 37205 c-2 -2 -48 -6 -102 -9 -54 -4 -102 -8 -105 -10 -3 -2
-40 -7 -81 -10 -41 -3 -84 -8 -95 -10 -11 -2 -42 -7 -70 -10 -132 -19 -430
-81 -560 -117 -127 -35 -415 -129 -430 -139 -5 -4 -28 -13 -50 -20 -84 -26
-302 -147 -351 -194 -6 -6 -30 -28 -54 -50 -123 -111 -204 -265 -256 -491 -4
-16 -8 -770 -10 -1675 -1 -905 -3 -1661 -3 -1680 -1 -30 -5 -36 -23 -36 -25
-1 -118 -12 -158 -19 -14 -2 -45 -7 -70 -9 -25 -3 -60 -8 -78 -10 -18 -3 -52
-8 -75 -11 -41 -6 -148 -22 -197 -30 -14 -2 -45 -7 -70 -10 -25 -3 -52 -8 -60
-10 -8 -2 -33 -6 -55 -10 -53 -7 -250 -43 -300 -55 -22 -5 -56 -12 -75 -15
-29 -5 -167 -33 -246 -50 -358 -76 -884 -216 -1264 -337 -300 -95 -791 -268
-915 -323 -16 -8 -59 -26 -95 -40 -36 -15 -78 -33 -95 -40 -16 -7 -75 -32
-130 -55 -55 -24 -122 -53 -150 -65 -27 -13 -72 -33 -100 -45 -78 -35 -578
-283 -695 -346 -208 -110 -436 -238 -503 -281 -37 -24 -69 -43 -71 -43 -9 0
-287 -177 -471 -299 -430 -287 -812 -577 -1279 -974 -27 -23 -70 -61 -95 -84
-25 -23 -55 -50 -67 -60 -25 -21 -187 -171 -259 -238 -208 -195 -590 -587
-735 -755 -12 -14 -40 -46 -63 -71 -23 -25 -53 -59 -67 -75 -46 -54 -102 -119
-159 -184 -113 -130 -137 -157 -176 -205 -22 -27 -67 -81 -100 -121 -171 -204
-525 -679 -726 -974 -211 -309 -536 -842 -693 -1132 -20 -38 -52 -98 -73 -135
-110 -204 -324 -648 -413 -858 -23 -55 -48 -113 -55 -130 -8 -16 -44 -104 -80
-195 -36 -91 -70 -174 -75 -185 -43 -92 -203 -548 -293 -835 -60 -191 -185
-630 -202 -708 -2 -9 -24 -105 -50 -212 -25 -107 -53 -229 -61 -270 -9 -41
-20 -95 -25 -120 -5 -25 -12 -61 -15 -80 -3 -19 -8 -38 -10 -41 -2 -3 -6 -21
-9 -40 -3 -19 -16 -92 -29 -164 -24 -131 -35 -189 -42 -235 -2 -14 -6 -38 -9
-55 -2 -16 -7 -48 -10 -70 -4 -22 -8 -51 -10 -64 -2 -13 -7 -45 -11 -70 -3
-25 -8 -57 -10 -71 -5 -31 -9 -62 -28 -220 -15 -120 -20 -165 -32 -275 -3 -27
-7 -66 -9 -85 -3 -19 -7 -66 -10 -105 -3 -38 -7 -92 -10 -120 -8 -87 -14 -177
-20 -280 -3 -55 -7 -134 -10 -175 -27 -442 -27 -1465 0 -1665 2 -16 7 -84 10
-150 3 -66 8 -133 10 -150 2 -16 7 -64 10 -105 3 -41 8 -88 10 -105 2 -16 6
-55 10 -85 3 -30 10 -91 15 -135 5 -44 12 -107 15 -140 4 -33 8 -67 10 -75 2
-8 7 -41 10 -73 4 -32 8 -68 10 -79 3 -12 7 -44 10 -72 3 -28 8 -58 10 -66 3
-8 9 -46 15 -85 5 -38 12 -81 15 -95 6 -30 25 -135 31 -170 3 -14 7 -36 9 -50
3 -14 7 -36 10 -50 2 -14 11 -56 19 -95 9 -38 17 -81 20 -95 2 -14 9 -43 14
-65 6 -22 13 -53 16 -70 6 -41 52 -239 83 -360 13 -55 26 -107 28 -115 9 -39
120 -428 151 -530 50 -164 206 -633 214 -645 4 -5 13 -28 20 -50 21 -68 173
-451 250 -629 240 -562 528 -1124 834 -1629 39 -64 76 -125 81 -135 53 -93
302 -478 419 -647 69 -100 283 -401 298 -420 5 -5 30 -39 57 -75 66 -87 185
-243 204 -266 9 -11 32 -39 53 -64 277 -339 426 -511 659 -760 127 -136 538
-544 671 -666 104 -96 335 -298 449 -393 131 -109 313 -252 455 -359 96 -72
180 -135 185 -139 38 -30 240 -170 396 -275 699 -470 1432 -858 2247 -1189 12
-5 32 -13 45 -19 57 -24 113 -46 262 -102 88 -33 178 -66 200 -74 79 -29 611
-207 640 -215 17 -4 109 -31 205 -59 239 -70 767 -208 869 -226 12 -3 53 -12
90 -20 36 -9 75 -18 86 -20 11 -2 31 -6 45 -9 41 -9 71 -15 150 -30 41 -8 86
-17 100 -20 48 -11 286 -56 365 -71 44 -8 91 -16 105 -19 36 -7 189 -33 230
-39 19 -2 100 -15 180 -26 80 -12 156 -23 170 -25 14 -1 43 -5 65 -8 22 -4 63
-9 90 -12 28 -3 64 -8 80 -10 17 -2 50 -6 75 -9 25 -3 65 -8 90 -11 116 -13
236 -24 425 -40 39 -3 99 -8 135 -11 70 -7 105 -9 310 -18 74 -4 176 -9 225
-11 110 -6 765 -6 930 0 107 3 163 6 380 20 93 6 236 16 275 20 19 2 69 6 110
10 41 3 86 8 100 10 14 2 50 7 80 10 30 3 72 8 93 10 20 3 54 7 75 9 90 11
148 19 167 22 10 2 37 6 60 9 22 3 65 10 95 15 30 5 73 11 95 14 60 9 117 18
140 23 11 2 34 6 50 9 29 5 213 39 265 49 128 25 148 29 325 70 39 8 80 18 93
20 90 19 467 116 626 161 476 135 1210 403 1641 599 240 109 731 351 890 438
44 24 105 57 135 74 30 16 76 42 103 56 26 15 68 39 95 53 67 37 280 162 322
189 19 12 98 62 175 110 392 247 991 662 1215 842 8 7 71 56 140 110 69 53
130 102 136 108 6 5 26 21 44 35 19 14 66 52 105 85 39 33 91 76 115 95 89 72
318 275 490 435 200 187 248 234 430 415 107 107 242 247 300 310 58 62 116
126 130 141 14 15 48 53 76 85 28 33 91 104 139 159 138 157 444 539 515 641
8 12 69 96 135 185 97 134 362 523 444 654 160 255 334 555 453 780 106 203
388 776 388 791 0 2 13 32 29 66 16 35 47 108 70 163 23 55 48 114 56 132 67
151 235 599 310 828 105 321 253 822 271 915 2 14 7 32 10 40 14 38 133 542
149 633 3 15 12 60 21 100 8 39 17 79 19 88 2 9 6 34 9 55 4 22 9 46 12 55 2
9 11 54 19 100 8 46 16 95 19 109 7 36 44 267 51 320 3 25 8 61 10 80 3 19 8
53 11 75 3 22 7 54 9 70 5 36 14 115 20 170 2 22 6 54 8 70 3 17 8 62 12 100
4 39 9 78 11 88 2 10 6 55 9 100 3 45 8 100 10 122 2 22 7 83 10 135 4 52 8
115 10 140 20 265 27 1068 12 1370 -13 251 -14 269 -21 355 -4 44 -9 109 -12
145 -2 36 -7 85 -9 110 -3 25 -7 72 -10 105 -4 33 -8 76 -10 95 -3 19 -7 60
-10 90 -10 92 -15 134 -19 160 -3 14 -8 52 -11 85 -3 33 -8 67 -10 75 -2 8 -6
38 -10 65 -3 28 -12 88 -20 135 -8 47 -17 103 -20 125 -2 22 -7 50 -9 61 -2
12 -7 39 -10 60 -6 37 -29 164 -41 229 -3 17 -10 53 -15 80 -5 28 -19 95 -30
150 -12 55 -24 114 -27 130 -18 107 -235 937 -293 1120 -6 17 -28 89 -51 160
-193 613 -407 1166 -661 1704 -17 35 -46 98 -65 140 -68 148 -301 605 -323
636 -4 6 -23 39 -42 75 -127 236 -427 730 -555 912 -18 26 -33 52 -33 56 0 5
-9 17 -20 27 -11 10 -20 24 -20 31 0 7 -4 14 -8 16 -4 2 -37 46 -73 98 -113
166 -160 232 -263 369 -56 73 -111 148 -124 165 -12 17 -28 38 -35 46 -7 8
-35 44 -62 80 -47 61 -77 98 -100 124 -6 6 -39 47 -75 91 -35 44 -67 82 -70
85 -3 3 -43 50 -90 105 -46 55 -86 102 -90 105 -3 3 -39 43 -80 90 -41 46
-100 111 -130 144 -30 32 -91 98 -135 145 -183 198 -607 612 -810 792 -27 24
-70 63 -95 85 -44 41 -297 257 -376 321 -21 18 -71 58 -109 90 -82 67 -103 84
-245 193 -58 45 -112 87 -120 93 -247 195 -959 683 -1238 848 -15 9 -92 56
-172 104 -160 97 -529 288 -685 354 -55 23 -109 46 -120 51 -281 128 -956 331
-1290 388 -66 12 -281 2 -306 -14 -4 -2 -24 -6 -45 -9 -22 -4 -81 -17 -132
-31 -376 -98 -652 -312 -795 -614 -90 -193 -132 -407 -129 -660 1 -115 8 -182
37 -374 8 -50 82 -262 116 -327 37 -74 84 -149 148 -234 53 -71 216 -232 242
-240 11 -4 19 -10 19 -15 0 -14 181 -126 296 -183 60 -30 190 -85 289 -121
197 -73 395 -154 520 -211 44 -20 96 -44 115 -52 60 -27 405 -199 466 -233 33
-18 77 -43 99 -55 102 -56 316 -189 475 -294 147 -98 483 -340 500 -360 3 -3
32 -26 65 -51 33 -25 65 -50 70 -56 6 -6 50 -44 99 -85 165 -136 270 -234 505
-470 238 -238 434 -446 567 -599 21 -25 44 -49 50 -55 6 -5 63 -71 126 -145
133 -157 125 -147 224 -270 42 -52 89 -111 105 -130 16 -19 69 -89 119 -155
107 -143 97 -130 138 -181 17 -23 32 -46 32 -52 0 -6 3 -12 8 -14 12 -5 141
-190 275 -393 232 -354 443 -720 625 -1083 97 -195 130 -264 215 -452 38 -84
169 -394 171 -405 1 -5 17 -48 35 -95 19 -47 51 -137 73 -200 21 -63 43 -124
48 -135 11 -25 124 -382 144 -455 8 -30 30 -111 49 -180 83 -300 159 -648 222
-1013 19 -111 37 -222 40 -247 3 -25 7 -56 9 -70 3 -14 8 -52 12 -85 3 -33 8
-70 9 -83 2 -12 6 -50 10 -85 4 -34 8 -75 10 -92 2 -16 6 -66 10 -110 3 -44 8
-91 10 -105 2 -14 6 -68 10 -120 4 -52 8 -114 10 -138 25 -267 25 -1233 0
-1517 -2 -22 -7 -89 -10 -150 -4 -60 -8 -117 -10 -126 -2 -9 -6 -52 -10 -95
-4 -43 -8 -90 -10 -104 -2 -14 -7 -52 -11 -85 -3 -33 -8 -67 -9 -75 -2 -8 -6
-44 -10 -80 -3 -36 -8 -72 -10 -80 -2 -8 -7 -40 -10 -70 -16 -145 -81 -506
-135 -750 -12 -52 -24 -107 -26 -121 -4 -23 -106 -433 -118 -479 -34 -121 -68
-238 -73 -250 -3 -8 -7 -19 -8 -25 -5 -20 -108 -332 -143 -430 -77 -219 -202
-536 -275 -695 -14 -30 -43 -95 -65 -145 -108 -245 -310 -636 -471 -910 -29
-49 -61 -104 -71 -122 -48 -83 -231 -370 -298 -468 -124 -182 -403 -568 -422
-585 -3 -3 -34 -43 -69 -90 -53 -70 -155 -195 -277 -340 -43 -51 -229 -265
-244 -281 -8 -8 -57 -62 -109 -120 -97 -106 -626 -638 -761 -764 -76 -71 -227
-208 -310 -282 -495 -441 -1203 -947 -1720 -1230 -41 -23 -104 -58 -140 -77
-279 -154 -741 -369 -1089 -506 -96 -38 -556 -197 -591 -205 -15 -3 -193 -55
-255 -75 -29 -9 -345 -89 -375 -95 -8 -2 -33 -8 -55 -14 -33 -8 -241 -54 -310
-67 -11 -2 -31 -6 -45 -9 -14 -2 -41 -7 -60 -10 -19 -3 -42 -8 -50 -10 -8 -2
-33 -7 -55 -9 -22 -3 -63 -10 -92 -15 -29 -6 -74 -13 -100 -17 -26 -3 -57 -8
-68 -10 -10 -2 -37 -6 -60 -9 -22 -3 -51 -8 -65 -10 -14 -3 -51 -7 -83 -10
-32 -4 -67 -8 -79 -10 -11 -3 -46 -7 -77 -10 -31 -4 -67 -8 -81 -10 -14 -2
-61 -7 -105 -10 -44 -4 -93 -8 -110 -10 -16 -3 -75 -7 -130 -11 -55 -3 -116
-8 -135 -10 -300 -29 -1137 -24 -1575 11 -49 4 -110 9 -135 10 -111 8 -229 21
-382 40 -21 3 -57 7 -80 10 -24 3 -54 8 -68 10 -14 2 -49 7 -79 10 -30 4 -63
9 -75 11 -21 4 -56 10 -123 19 -21 3 -83 14 -138 25 -55 10 -116 22 -135 25
-28 5 -358 75 -420 90 -207 48 -749 202 -825 235 -11 5 -45 16 -75 26 -30 9
-109 36 -175 61 -745 276 -1404 609 -2030 1026 -144 96 -419 289 -470 329 -5
5 -28 22 -50 38 -85 64 -104 79 -250 194 -141 112 -417 342 -495 412 -352 316
-623 580 -910 890 -36 39 -85 94 -110 123 -25 29 -58 67 -75 85 -63 67 -270
315 -355 426 -19 25 -37 47 -41 50 -11 9 -266 355 -361 490 -455 649 -847
1376 -1141 2116 -115 290 -273 745 -332 959 -15 55 -33 118 -40 140 -13 39
-132 504 -140 544 -2 12 -6 25 -9 29 -2 4 -7 26 -10 48 -4 22 -8 49 -10 59 -9
42 -46 219 -51 244 -6 26 -43 235 -50 281 -2 14 -11 66 -19 115 -9 50 -18 110
-21 135 -8 71 -23 180 -30 230 -2 14 -6 50 -10 80 -3 30 -8 71 -10 90 -3 19
-7 60 -10 90 -3 30 -8 78 -11 105 -3 28 -7 68 -9 90 -3 22 -7 83 -10 135 -3
52 -8 131 -11 175 -25 349 -14 1114 21 1470 2 22 6 72 10 110 3 39 7 86 10
105 2 19 7 60 10 90 3 30 8 71 10 90 3 19 7 55 10 80 13 121 17 147 20 170 2
14 7 43 9 65 3 22 8 51 11 65 4 23 29 167 41 235 2 17 10 57 16 90 6 33 12 69
14 80 1 11 12 65 24 120 11 55 23 116 26 135 3 19 12 62 21 95 8 33 17 68 19
78 2 9 6 26 9 37 12 48 16 66 21 90 8 40 50 204 88 350 28 105 174 579 203
660 3 8 31 92 63 185 125 367 280 736 475 1130 136 275 198 392 302 575 122
212 395 643 448 707 6 6 20 27 33 45 43 62 325 443 351 474 14 17 40 48 56 69
104 135 357 428 525 609 101 109 473 480 595 593 106 97 238 213 414 363 29
25 65 55 80 68 14 13 64 53 111 90 47 36 87 69 90 72 3 3 66 53 140 110 74 57
140 108 145 113 54 44 285 210 451 323 197 134 601 384 620 384 2 0 21 11 42
24 20 12 42 24 47 26 6 1 21 10 35 19 14 10 70 41 125 68 178 91 210 107 215
113 6 6 147 76 245 121 39 17 108 49 153 70 46 22 90 39 97 39 7 0 15 4 17 8
4 11 374 155 618 242 113 40 214 76 225 81 58 24 401 124 595 173 58 15 119
31 135 36 25 8 175 42 238 55 10 2 26 6 35 9 9 3 34 7 56 11 21 3 41 7 45 9 3
3 27 7 51 11 25 3 52 8 60 10 17 5 222 40 285 50 22 3 65 10 95 15 82 14 107
18 200 30 47 6 97 13 111 16 36 5 91 12 169 19 36 3 81 8 100 10 19 3 69 7
110 10 41 3 100 7 130 10 30 2 98 7 150 11 52 3 120 8 150 10 30 2 172 6 315
8 254 5 437 13 486 21 13 2 56 8 94 14 127 20 139 23 255 57 283 85 508 241
641 444 78 118 144 283 173 431 9 41 19 90 23 109 4 19 8 769 10 1665 2 897 5
1636 8 1643 3 7 8 11 12 9 5 -3 31 -8 58 -11 28 -4 82 -11 120 -17 39 -5 88
-12 110 -15 22 -3 51 -7 65 -9 14 -2 45 -7 70 -10 25 -4 81 -13 125 -20 44 -8
100 -17 125 -20 25 -3 52 -8 60 -10 8 -2 35 -7 60 -10 25 -4 122 -21 215 -40
94 -19 181 -36 195 -39 101 -20 144 -29 295 -61 94 -20 179 -39 190 -41 11 -3
31 -7 45 -10 14 -3 57 -14 95 -24 39 -10 81 -21 95 -24 68 -15 349 -88 465
-121 28 -8 106 -31 175 -51 330 -94 335 -96 695 -217 298 -100 454 -157 760
-278 88 -35 162 -63 165 -64 8 -1 248 -104 328 -141 41 -19 75 -34 77 -34 4 0
121 -54 232 -106 29 -14 54 -25 55 -24 4 1 573 -286 673 -340 344 -184 650
-363 970 -565 83 -53 329 -214 340 -223 6 -4 46 -32 90 -62 235 -158 648 -464
910 -674 222 -177 556 -459 636 -536 9 -8 34 -30 55 -49 284 -249 808 -769
1129 -1122 33 -36 78 -85 100 -110 108 -117 411 -467 480 -554 22 -27 42 -52
45 -55 3 -3 24 -27 45 -55 22 -27 43 -52 46 -55 37 -33 405 -518 596 -785 78
-110 160 -225 183 -256 22 -31 40 -61 40 -67 0 -6 4 -12 8 -14 29 -11 509
-784 661 -1063 18 -33 36 -64 41 -70 4 -5 26 -46 50 -90 23 -44 58 -108 77
-143 75 -138 284 -558 367 -737 289 -620 533 -1263 732 -1925 68 -227 67 -227
113 -390 71 -253 186 -755 235 -1020 3 -14 12 -61 20 -105 8 -44 18 -93 21
-110 2 -16 9 -55 14 -85 6 -30 13 -73 16 -95 3 -23 7 -50 9 -62 3 -11 7 -38
10 -59 4 -22 11 -64 16 -94 5 -30 12 -77 15 -105 4 -27 9 -63 11 -80 3 -16 7
-46 10 -65 2 -19 6 -46 9 -60 2 -14 7 -47 10 -75 3 -27 7 -66 10 -85 2 -19 7
-60 10 -90 3 -30 8 -76 11 -101 3 -25 7 -63 9 -85 2 -21 6 -65 9 -96 3 -32 8
-84 11 -115 3 -32 7 -80 10 -108 8 -92 16 -208 30 -425 27 -439 27 -1504 0
-1800 -2 -25 -6 -92 -9 -150 -3 -58 -8 -125 -10 -150 -3 -25 -7 -87 -11 -138
-3 -51 -8 -101 -10 -110 -1 -9 -6 -53 -10 -97 -3 -44 -8 -93 -10 -110 -2 -16
-7 -57 -10 -90 -3 -33 -8 -78 -11 -100 -3 -22 -6 -56 -8 -75 -4 -40 -24 -183
-31 -220 -4 -25 -10 -67 -20 -137 -3 -21 -8 -54 -11 -73 -3 -19 -7 -51 -10
-70 -2 -19 -9 -60 -14 -90 -5 -30 -12 -70 -15 -87 -9 -59 -61 -340 -70 -383
-2 -14 -19 -95 -36 -180 -17 -85 -32 -157 -35 -161 -2 -4 -7 -24 -10 -45 -11
-68 -150 -610 -219 -854 -156 -550 -451 -1368 -641 -1778 -13 -29 -24 -54 -24
-57 0 -2 -13 -32 -29 -67 -16 -35 -49 -108 -74 -163 -126 -280 -325 -682 -456
-920 -349 -634 -684 -1173 -1096 -1760 -137 -196 -462 -635 -484 -655 -3 -3
-22 -25 -41 -50 -76 -99 -319 -395 -409 -500 -33 -38 -146 -166 -251 -284 -28
-31 -35 -40 -195 -212 -218 -235 -657 -666 -887 -869 -134 -119 -206 -181
-374 -321 -195 -163 -260 -216 -374 -304 -36 -28 -72 -56 -80 -63 -35 -28
-175 -131 -320 -235 -85 -62 -160 -116 -165 -120 -77 -62 -754 -502 -772 -502
-2 0 -17 -8 -31 -19 -15 -10 -43 -28 -62 -39 -19 -11 -73 -42 -120 -69 -94
-55 -320 -182 -445 -250 -84 -46 -634 -320 -745 -371 -36 -16 -123 -55 -195
-87 -71 -32 -152 -68 -180 -80 -352 -162 -1217 -472 -1772 -636 -114 -33 -215
-63 -223 -64 -8 -2 -64 -18 -123 -35 -129 -36 -362 -97 -397 -103 -14 -3 -48
-11 -75 -20 -28 -8 -54 -15 -60 -16 -23 -4 -56 -12 -160 -36 -120 -29 -313
-71 -360 -78 -16 -3 -75 -15 -130 -26 -55 -11 -118 -23 -140 -26 -22 -4 -56
-10 -75 -15 -19 -5 -55 -12 -80 -15 -25 -3 -52 -8 -60 -10 -20 -6 -234 -42
-290 -50 -25 -3 -70 -10 -100 -15 -30 -5 -71 -11 -90 -14 -260 -37 -323 -46
-369 -51 -30 -4 -61 -8 -70 -10 -9 -1 -45 -6 -81 -10 -36 -4 -72 -9 -80 -10
-8 -1 -51 -6 -95 -9 -44 -4 -96 -9 -115 -11 -86 -10 -235 -23 -337 -29 -46 -3
-115 -8 -155 -11 -40 -3 -98 -7 -128 -10 -354 -26 -1414 -27 -1715 0 -22 2
-87 6 -145 9 -58 4 -118 8 -135 10 -16 2 -68 7 -115 11 -47 3 -98 8 -115 10
-38 4 -123 13 -200 20 -33 3 -76 8 -95 10 -82 10 -127 16 -160 20 -19 2 -51 6
-70 9 -19 3 -71 10 -115 17 -44 6 -87 12 -95 14 -8 1 -40 6 -70 10 -30 4 -64
9 -75 11 -10 2 -35 6 -55 9 -35 5 -61 10 -110 20 -14 2 -41 7 -60 10 -19 3
-71 12 -115 20 -44 8 -96 17 -115 20 -19 3 -42 8 -50 10 -8 2 -28 7 -45 9 -16
3 -75 15 -130 26 -55 12 -111 24 -125 26 -14 3 -33 7 -42 10 -9 3 -27 7 -39 9
-43 9 -245 58 -379 92 -74 19 -144 37 -155 39 -140 27 -814 237 -1160 362
-277 99 -681 258 -850 332 -22 10 -67 29 -100 43 -33 14 -96 42 -140 62 -44
21 -111 52 -150 70 -304 140 -717 348 -935 470 -41 23 -115 64 -165 90 -49 27
-102 56 -117 67 -14 10 -28 18 -31 18 -3 0 -51 27 -107 60 -56 33 -103 60
-105 60 -3 0 -339 210 -440 275 -493 317 -871 585 -1304 923 -190 150 -429
344 -566 461 -113 97 -267 232 -275 240 -3 3 -27 26 -55 50 -204 181 -633 600
-831 811 -180 193 -209 225 -284 310 -41 47 -77 87 -80 90 -13 13 -90 101
-130 149 -25 29 -50 59 -55 65 -93 101 -432 528 -589 741 -36 50 -69 95 -74
100 -7 9 -89 125 -256 362 -135 191 -475 733 -604 963 -17 30 -48 87 -70 125
-122 217 -208 381 -357 682 -74 150 -135 274 -135 276 0 3 -23 54 -51 113 -84
180 -218 489 -224 516 -2 9 -9 26 -15 38 -14 27 -173 432 -210 535 -15 44 -50
143 -78 220 -250 705 -436 1364 -588 2095 -17 79 -18 86 -34 165 -5 28 -12 61
-15 75 -3 14 -9 50 -14 80 -6 30 -21 123 -36 205 -14 83 -30 179 -35 215 -5
36 -12 76 -14 90 -3 14 -10 61 -16 105 -6 44 -13 91 -16 105 -2 14 -6 50 -9
80 -3 30 -8 66 -10 80 -3 14 -7 48 -10 75 -3 28 -8 64 -10 80 -2 17 -6 62 -10
100 -4 39 -8 81 -10 95 -2 14 -6 59 -10 100 -3 41 -8 95 -11 120 -2 25 -7 74
-9 110 -5 74 -15 213 -20 280 -13 170 -19 429 -19 850 0 430 3 585 19 885 6
115 23 346 30 405 2 19 7 69 10 110 4 41 8 86 10 100 2 14 6 59 10 100 4 41 8
86 10 100 2 14 7 50 10 80 3 30 8 66 10 80 2 14 7 50 10 80 3 30 8 66 10 80 6
41 16 113 20 140 3 14 9 57 15 95 10 71 17 111 25 155 3 14 8 43 10 65 3 22
10 63 15 90 6 28 13 67 15 89 3 21 7 41 9 45 3 3 7 27 11 51 4 25 11 68 16 95
6 28 12 59 14 70 2 11 6 38 10 60 3 22 8 48 11 57 6 19 6 20 33 153 11 55 32
147 46 205 14 58 27 119 30 135 19 100 194 760 256 960 110 360 146 468 264
800 31 88 60 171 65 185 22 68 204 539 230 595 5 11 54 121 108 245 193 436
414 885 609 1230 158 282 162 289 205 359 21 34 38 65 38 68 0 2 19 34 43 71
46 74 53 85 93 152 45 74 284 434 393 590 55 80 106 153 113 164 7 10 27 37
44 60 288 386 381 504 651 823 97 114 182 213 187 219 6 6 43 47 81 90 244
275 658 693 974 984 103 95 113 104 187 170 124 111 385 328 619 515 55 44
102 83 105 86 3 3 61 48 130 100 69 52 127 97 130 100 9 11 237 177 258 188
11 6 26 17 34 24 39 38 488 341 803 542 103 67 365 225 371 225 3 0 23 12 47
27 23 15 130 77 237 138 163 94 365 219 405 252 6 4 51 37 100 73 247 177 467
373 715 639 39 42 192 223 241 286 192 244 275 440 284 667 10 277 -156 571
-482 856 -550 481 -1181 544 -1928 193 -68 -32 -474 -255 -570 -312 -16 -10
-48 -29 -70 -41 -22 -12 -48 -27 -57 -33 -56 -33 -205 -122 -227 -135 -14 -8
-66 -40 -114 -70 -48 -30 -100 -62 -115 -71 -126 -74 -677 -438 -915 -604
-151 -105 -784 -574 -823 -610 -6 -5 -29 -23 -50 -40 -32 -25 -294 -236 -374
-301 -13 -11 -44 -37 -70 -59 -552 -470 -718 -624 -1221 -1125 -303 -302 -526
-534 -618 -639 -38 -43 -147 -165 -158 -176 -7 -7 -44 -50 -84 -96 -39 -46
-75 -86 -79 -89 -14 -10 -320 -381 -425 -515 -60 -77 -112 -142 -115 -145 -11
-9 -416 -555 -501 -675 -126 -177 -341 -496 -470 -695 -110 -171 -339 -540
-352 -570 -4 -8 -15 -28 -26 -45 -10 -16 -46 -79 -81 -140 -88 -155 -91 -160
-146 -260 -27 -49 -53 -98 -59 -107 -130 -220 -469 -877 -605 -1173 -152 -330
-400 -917 -470 -1110 -10 -27 -28 -75 -40 -105 -40 -104 -92 -245 -131 -360
-22 -63 -44 -122 -48 -131 -10 -16 -189 -570 -196 -603 -3 -11 -13 -47 -24
-80 -11 -34 -43 -142 -71 -241 -27 -99 -54 -193 -59 -210 -9 -27 -86 -336 -96
-381 -2 -11 -20 -91 -41 -179 -20 -88 -40 -180 -45 -204 -5 -23 -13 -59 -18
-80 -6 -20 -13 -52 -16 -71 -3 -19 -17 -87 -31 -150 -14 -63 -27 -130 -30
-149 -6 -37 -9 -54 -24 -126 -10 -53 -16 -85 -25 -150 -4 -22 -8 -47 -10 -55
-2 -8 -7 -33 -10 -55 -3 -23 -7 -52 -10 -65 -3 -13 -7 -42 -10 -65 -4 -22 -15
-94 -25 -160 -17 -107 -31 -212 -46 -330 -4 -36 -7 -58 -19 -145 -2 -14 -6
-54 -10 -90 -4 -36 -8 -76 -10 -90 -2 -14 -7 -54 -10 -90 -3 -36 -7 -87 -10
-115 -2 -27 -7 -79 -10 -115 -3 -36 -8 -83 -10 -105 -4 -37 -8 -93 -20 -290
-3 -44 -7 -111 -10 -150 -24 -369 -28 -538 -28 -1080 0 -459 5 -725 18 -900 3
-33 7 -105 10 -160 3 -55 7 -125 10 -155 2 -30 7 -91 10 -135 3 -44 8 -102 10
-130 13 -146 16 -185 20 -235 5 -66 14 -162 20 -210 2 -19 7 -62 10 -95 3 -33
8 -80 11 -105 3 -25 7 -65 9 -90 2 -25 6 -63 9 -85 3 -22 8 -60 11 -85 3 -25
8 -56 10 -70 3 -14 7 -47 10 -75 3 -27 8 -57 10 -65 2 -8 7 -39 10 -69 4 -30
8 -62 10 -72 2 -9 6 -39 10 -66 11 -82 15 -107 20 -133 2 -14 7 -43 10 -65 8
-61 64 -381 80 -460 8 -38 17 -86 20 -105 3 -19 15 -75 25 -125 11 -49 21
-101 24 -115 2 -14 18 -86 35 -161 17 -75 33 -151 36 -170 3 -18 8 -35 10 -39
2 -3 6 -17 9 -31 2 -13 16 -73 31 -134 14 -60 28 -117 30 -125 1 -8 8 -35 15
-60 7 -25 13 -52 15 -60 5 -25 85 -333 96 -365 5 -16 29 -102 54 -190 183
-644 514 -1553 785 -2160 143 -320 160 -356 326 -690 142 -288 211 -421 301
-585 20 -36 52 -94 71 -130 52 -97 73 -134 82 -145 4 -5 21 -35 37 -65 160
-294 517 -866 760 -1218 62 -90 113 -167 113 -172 0 -5 4 -10 8 -12 5 -1 23
-25 42 -53 34 -50 344 -476 367 -505 6 -8 67 -87 134 -175 118 -155 448 -569
486 -610 10 -11 52 -61 93 -110 41 -50 77 -92 80 -95 3 -3 32 -36 65 -75 32
-38 66 -77 75 -86 8 -8 40 -44 70 -79 30 -35 66 -75 80 -90 14 -15 68 -74 120
-131 483 -525 1077 -1090 1635 -1554 66 -55 122 -102 125 -105 19 -21 337
-268 540 -421 436 -328 909 -651 1355 -923 88 -54 177 -109 197 -122 21 -13
39 -24 42 -24 2 0 51 -28 108 -61 249 -149 621 -348 1008 -542 281 -140 333
-165 600 -287 131 -60 870 -374 940 -399 19 -7 44 -17 55 -21 71 -30 252 -99
370 -140 28 -10 142 -50 255 -89 342 -121 825 -276 995 -321 17 -4 102 -29
190 -55 88 -26 167 -48 175 -50 8 -2 60 -16 115 -30 84 -22 303 -78 355 -90 8
-2 44 -11 80 -20 36 -9 83 -20 105 -25 87 -21 608 -134 666 -145 13 -3 35 -7
49 -10 14 -2 41 -7 60 -10 19 -3 42 -8 50 -10 8 -2 38 -7 65 -11 28 -3 53 -8
56 -10 5 -3 47 -11 99 -19 14 -2 52 -9 85 -15 33 -6 76 -13 95 -16 19 -3 42
-7 50 -9 8 -2 29 -6 45 -9 73 -11 121 -19 139 -22 11 -2 42 -6 70 -9 28 -3 78
-10 111 -15 72 -11 114 -17 180 -25 65 -8 113 -14 150 -20 33 -5 193 -23 370
-40 33 -4 71 -8 85 -10 14 -2 64 -6 112 -10 47 -3 95 -7 105 -9 11 -3 62 -7
114 -10 52 -4 119 -9 149 -11 30 -3 100 -7 155 -10 55 -4 124 -8 152 -10 67
-5 330 -17 448 -21 138 -4 853 -4 1005 0 178 5 380 15 610 31 41 3 116 7 165
10 84 5 150 10 250 20 22 2 76 7 120 10 44 4 91 8 105 10 43 6 123 15 185 20
33 3 76 7 95 10 19 2 58 7 85 10 28 2 61 7 75 9 14 2 52 7 85 11 32 4 66 8 75
10 8 1 40 6 70 9 30 4 66 8 80 11 44 7 174 25 220 30 25 3 56 7 70 10 14 3 52
10 85 15 33 6 74 13 90 16 17 3 113 20 215 39 102 19 199 37 215 40 17 3 46 8
65 11 19 3 76 14 125 25 50 11 110 24 135 29 25 5 88 19 140 30 52 12 106 24
120 26 77 15 317 73 540 130 140 36 263 67 273 69 10 2 32 9 50 14 18 6 95 29
172 50 470 133 726 215 1175 376 118 42 238 85 265 95 141 50 602 236 780 315
17 8 127 56 245 108 436 193 879 414 1310 654 118 66 231 129 250 139 19 10
37 22 38 27 2 4 7 7 12 7 12 0 368 213 570 340 360 227 1054 704 1275 877 17
13 35 27 40 31 31 22 252 188 262 197 7 5 18 15 25 20 197 153 269 210 398
314 85 69 157 128 160 131 3 3 48 41 100 85 96 80 391 335 421 364 10 9 49 45
89 81 40 36 86 78 104 93 217 197 652 627 891 881 72 76 141 150 155 165 38
40 204 222 231 254 13 16 39 45 57 65 28 31 134 154 204 237 9 11 27 31 39 45
11 14 38 45 58 70 20 25 38 47 41 50 3 3 35 41 70 85 35 44 67 82 70 85 34 32
351 445 490 638 172 238 494 709 545 794 6 9 46 73 90 142 44 70 85 134 90
144 6 10 44 74 86 142 167 275 360 610 498 870 60 112 421 835 421 843 0 3 22
51 49 108 60 129 89 193 130 289 37 87 71 165 101 234 12 27 30 72 41 100 11
28 24 60 29 71 20 42 260 655 303 775 61 169 279 849 292 908 2 9 13 46 24 82
27 88 156 555 166 600 2 8 22 89 44 180 23 91 49 197 57 235 9 39 18 79 20 90
3 11 7 31 10 44 3 12 11 52 20 87 35 154 88 416 130 654 3 14 11 61 20 105 8
45 16 94 18 110 2 17 9 58 15 92 18 102 30 175 36 223 3 25 8 56 10 70 2 14 7
45 10 70 3 25 8 56 10 70 2 14 7 50 10 80 3 30 7 62 10 70 2 8 6 42 10 75 9
95 16 148 20 175 2 14 7 57 10 95 4 39 8 82 11 96 2 14 6 64 9 111 3 47 7 94
9 104 2 10 7 61 11 112 4 51 8 112 10 135 4 41 10 137 20 302 35 559 34 1302
0 1905 -3 52 -8 131 -10 175 -2 44 -6 109 -9 145 -3 36 -8 101 -11 145 -3 44
-8 98 -10 120 -2 22 -7 69 -10 105 -19 197 -25 253 -30 285 -5 32 -12 89 -20
170 -3 28 -8 66 -10 85 -3 19 -8 53 -10 75 -6 43 -14 105 -20 145 -2 14 -11
77 -20 140 -9 63 -23 156 -31 205 -8 50 -17 101 -19 115 -7 43 -35 204 -40
230 -4 22 -20 108 -30 165 -3 21 -43 225 -51 260 -2 11 -8 43 -13 70 -10 50
-69 327 -76 355 -2 8 -11 47 -20 85 -19 87 -63 263 -105 420 -17 66 -33 127
-35 135 -27 111 -137 482 -267 900 -30 96 -59 182 -69 205 -4 11 -15 40 -23
65 -48 148 -304 830 -347 925 -10 22 -40 94 -68 161 -49 118 -176 409 -241
549 -73 160 -393 799 -459 918 -39 70 -71 130 -71 132 0 2 -22 42 -50 90 -27
48 -50 88 -50 90 0 3 -20 37 -43 77 -24 40 -84 141 -132 223 -209 357 -520
837 -765 1185 -99 140 -402 552 -457 620 -7 8 -74 94 -149 190 -122 155 -454
559 -494 601 -8 8 -37 41 -64 73 -27 31 -61 70 -75 85 -14 16 -60 66 -101 112
-41 46 -102 113 -135 149 -34 36 -83 89 -111 119 -271 297 -912 933 -1179
1171 -33 30 -73 66 -90 81 -16 15 -44 40 -61 56 -17 15 -66 60 -109 98 -43 39
-90 81 -105 95 -15 14 -54 48 -86 75 -112 97 -159 138 -189 164 -17 14 -55 46
-85 71 -30 25 -57 47 -60 50 -3 3 -27 24 -55 45 -55 45 -92 75 -109 90 -6 6
-54 44 -106 85 -52 41 -102 80 -110 87 -236 191 -733 552 -1085 789 -279 188
-960 614 -982 614 -3 0 -17 8 -31 19 -122 85 -924 508 -1236 651 -34 15 -96
44 -139 64 -43 19 -187 83 -320 142 -133 58 -251 109 -262 114 -361 162 -1165
453 -1695 616 -216 66 -254 77 -400 118 -30 8 -113 31 -185 51 -71 20 -161 45
-200 55 -38 10 -95 26 -127 34 -31 8 -67 17 -80 20 -41 9 -62 14 -128 31 -74
19 -64 17 -190 45 -52 12 -120 27 -150 35 -30 8 -66 16 -80 19 -14 2 -81 16
-150 31 -107 22 -302 61 -350 70 -8 1 -31 5 -50 9 -19 3 -46 8 -60 11 -14 3
-50 9 -80 15 -30 6 -65 12 -76 14 -23 5 -85 15 -119 21 -23 3 -135 22 -180 30
-16 3 -57 10 -90 16 -62 11 -67 12 -150 24 -27 3 -61 8 -75 10 -38 6 -111 15
-145 20 -98 12 -284 36 -310 40 -101 17 -359 54 -405 59 -115 12 -167 18 -215
22 -55 6 -702 13 -707 9z"/>
<path d="M14657 36744 c-1 -1 -36 -4 -77 -7 -84 -7 -211 -30 -252 -46 -16 -6
-28 -9 -28 -7 0 15 -215 -80 -327 -142 -128 -73 -347 -267 -458 -407 -57 -71
-124 -173 -161 -247 -27 -54 -89 -231 -99 -284 -2 -16 -7 -40 -10 -54 -30
-141 -22 -408 17 -555 5 -22 11 -47 13 -55 14 -70 80 -215 143 -315 133 -209
351 -423 558 -545 93 -55 121 -68 239 -111 83 -31 164 -54 225 -64 19 -3 42
-8 50 -10 86 -24 429 -24 550 0 14 2 50 10 80 16 156 31 349 107 490 193 386
236 634 610 688 1036 15 124 4 396 -19 456 -4 13 -7 24 -4 24 2 0 -2 18 -10
40 -8 22 -12 40 -10 40 2 0 -14 45 -35 100 -194 496 -655 851 -1210 931 -61 9
-345 19 -353 13z"/>
<path d="M19107 28594 c-1 -1 -94 -4 -207 -7 -215 -6 -293 -11 -480 -31 -19
-3 -66 -7 -105 -10 -38 -4 -81 -8 -95 -11 -14 -2 -50 -7 -80 -10 -30 -3 -66
-7 -80 -10 -14 -2 -41 -6 -60 -9 -19 -3 -46 -8 -60 -11 -14 -2 -41 -7 -60 -9
-19 -3 -98 -17 -175 -31 -77 -15 -149 -28 -160 -30 -54 -9 -231 -48 -316 -70
-53 -13 -108 -26 -123 -29 -15 -3 -53 -12 -84 -21 -31 -10 -68 -19 -82 -21
-14 -3 -41 -10 -60 -16 -19 -7 -39 -13 -45 -14 -80 -15 -606 -185 -735 -237
-14 -6 -29 -11 -35 -13 -13 -3 -404 -164 -480 -198 -33 -15 -73 -32 -89 -39
-51 -21 -557 -273 -636 -317 -41 -23 -104 -58 -140 -77 -36 -20 -77 -44 -92
-55 -14 -10 -28 -18 -31 -18 -16 0 -709 -447 -727 -469 -3 -3 -59 -46 -125
-96 -137 -102 -350 -274 -475 -385 -47 -41 -100 -88 -119 -105 -90 -79 -535
-531 -661 -671 -360 -402 -592 -675 -753 -887 -22 -29 -75 -96 -103 -130 -22
-27 -17 -45 14 -51 74 -14 516 -19 1822 -20 l1425 -1 0 -453 0 -452 -25 -1
c-14 0 -285 -1 -602 -1 -370 -1 -578 -4 -578 -11 0 -28 741 -2215 885 -2612
20 -55 49 -136 65 -180 15 -44 42 -118 59 -165 18 -47 38 -104 47 -127 43
-123 174 -478 211 -573 14 -36 31 -85 39 -110 8 -25 19 -54 23 -65 5 -11 14
-36 21 -55 7 -19 16 -44 20 -55 5 -11 28 -72 51 -135 23 -63 56 -155 74 -205
18 -49 76 -209 129 -355 53 -146 104 -285 113 -310 10 -25 18 -49 19 -55 2 -5
19 -55 39 -110 52 -141 141 -395 252 -715 52 -151 121 -351 155 -445 33 -93
73 -208 89 -255 17 -47 34 -94 39 -105 4 -11 22 -63 40 -115 18 -52 36 -104
40 -115 5 -11 16 -40 24 -65 8 -25 40 -117 71 -205 31 -88 61 -171 65 -185 5
-14 41 -117 80 -230 40 -113 98 -281 130 -375 32 -93 96 -280 143 -415 47
-135 99 -285 116 -335 16 -49 62 -182 101 -295 40 -113 86 -247 103 -297 25
-74 33 -89 41 -75 10 16 225 546 230 567 2 6 8 24 15 40 7 17 25 66 42 110 16
44 34 89 39 100 22 51 169 463 270 760 39 116 87 254 106 308 72 206 195 558
254 732 28 83 54 157 57 165 3 8 7 20 9 25 2 6 16 48 33 95 16 47 90 263 164
480 74 217 143 415 152 440 9 25 18 50 19 55 1 6 10 33 20 60 28 78 29 79 32
90 1 6 21 62 44 125 23 63 61 169 85 235 23 66 46 128 50 137 3 9 21 59 39
110 39 109 138 378 170 460 18 46 23 81 25 172 1 72 -2 117 -9 121 -18 11 -60
103 -71 157 -6 29 -24 85 -39 123 -49 122 -126 325 -184 485 -32 85 -64 171
-71 190 -16 39 -120 335 -164 468 -367 1091 -339 1010 -491 1427 -91 250 -213
569 -244 640 -7 17 -55 130 -105 251 l-93 221 -611 1 c-337 0 -619 1 -627 1
-13 1 -15 58 -15 453 l0 453 1775 1 c976 1 2025 5 2330 9 1068 15 1260 12
1460 -20 42 -7 153 -34 157 -39 5 -5 11 -189 19 -543 l6 -313 -34 -1 c-18 0
-320 -1 -671 -1 l-637 -1 6 -21 c66 -220 197 -612 208 -623 3 -4 6 -12 6 -20
0 -7 94 -268 209 -580 115 -313 254 -696 310 -853 56 -157 106 -294 111 -305
4 -11 27 -74 50 -140 23 -66 59 -167 80 -225 21 -58 52 -145 68 -195 28 -83
71 -208 297 -845 86 -244 227 -650 322 -925 30 -88 63 -182 73 -210 11 -27 55
-153 99 -280 164 -475 313 -900 424 -1215 148 -419 183 -518 255 -730 112
-327 323 -955 327 -970 13 -55 193 -566 265 -750 30 -79 107 -253 163 -371
l53 -114 12 35 c6 19 22 76 37 125 70 237 120 384 325 945 23 63 51 140 62
170 11 30 53 145 93 255 40 110 80 218 88 240 30 84 108 301 114 315 3 8 7 20
9 25 2 6 28 75 59 155 218 564 403 1130 556 1705 57 216 139 558 155 645 2 14
7 36 9 50 11 53 15 76 20 115 9 57 15 96 20 125 2 14 7 52 10 85 3 33 7 71 10
85 4 23 7 52 20 220 3 30 7 84 10 120 6 69 6 628 1 695 -2 22 -6 83 -10 135
-4 52 -9 111 -11 130 -2 19 -7 60 -10 90 -11 101 -16 135 -25 190 -5 30 -12
73 -15 95 -9 58 -43 222 -60 288 -3 9 -7 25 -9 35 -34 151 -124 410 -201 577
-109 238 -383 743 -522 963 -76 120 -237 367 -243 372 -3 3 -30 41 -60 85 -29
44 -62 91 -72 105 -11 14 -43 57 -71 96 -29 39 -64 86 -79 105 -224 282 -269
361 -312 549 -51 220 -33 535 40 720 120 304 248 505 448 706 241 242 519 396
811 449 11 2 34 7 50 9 17 3 57 11 90 17 33 6 130 26 215 46 85 20 165 38 178
41 l23 4 -23 16 c-13 9 -68 55 -124 102 -101 85 -132 111 -254 211 -36 30 -67
56 -70 59 -4 4 -98 79 -170 137 -8 6 -42 33 -75 60 -85 70 -322 254 -442 344
-55 42 -118 82 -140 89 -60 19 -186 87 -321 172 -68 43 -125 78 -127 78 -2 0
-48 27 -104 60 -108 64 -454 242 -591 303 -47 22 -103 47 -125 57 -47 22 -317
134 -390 162 -420 160 -952 324 -1175 362 -14 2 -32 7 -40 10 -8 3 -32 8 -54
11 -21 3 -42 7 -46 10 -4 3 -25 7 -45 11 -21 3 -45 7 -54 9 -73 15 -273 54
-301 59 -19 3 -44 7 -55 10 -20 4 -82 13 -140 22 -16 2 -41 6 -55 9 -14 2 -50
7 -80 10 -30 4 -67 8 -81 10 -37 6 -84 12 -159 20 -67 6 -119 12 -181 21 -37
5 -83 9 -219 19 -41 3 -100 8 -130 10 -142 12 -714 26 -723 19z"/>
<path d="M27385 23745 c3 -27 8 -68 10 -90 3 -22 7 -69 10 -105 2 -36 7 -99
10 -140 10 -130 15 -318 15 -545 0 -291 -7 -407 -35 -627 -3 -21 -7 -57 -10
-80 -3 -24 -8 -54 -11 -68 -2 -14 -6 -38 -9 -55 -2 -16 -6 -39 -9 -50 -11 -51
-55 -264 -62 -300 -4 -22 -8 -114 -9 -205 -1 -157 -3 -168 -29 -225 -31 -67
-126 -306 -149 -375 -9 -25 -46 -130 -82 -235 -37 -104 -92 -262 -122 -350
-95 -274 -110 -316 -163 -465 -29 -80 -63 -176 -77 -215 -13 -38 -27 -77 -30
-85 -3 -8 -7 -19 -9 -25 -1 -5 -24 -68 -49 -140 -26 -71 -68 -191 -94 -265
-41 -116 -84 -234 -183 -500 -11 -30 -24 -64 -28 -75 -8 -19 -38 -104 -169
-470 -34 -93 -65 -179 -70 -190 -5 -11 -39 -105 -76 -210 -37 -104 -77 -219
-90 -255 -13 -36 -75 -213 -140 -395 -64 -181 -127 -359 -140 -395 -42 -115
-201 -576 -308 -895 -58 -170 -107 -317 -110 -325 -3 -8 -20 -60 -38 -115 -17
-55 -79 -233 -136 -395 -57 -162 -120 -340 -140 -395 -19 -55 -47 -136 -63
-180 -16 -44 -31 -91 -35 -105 -4 -14 -23 -68 -42 -120 -19 -52 -36 -101 -38
-110 -2 -8 -13 -40 -25 -70 -12 -30 -35 -95 -51 -145 -16 -49 -34 -99 -39
-110 -5 -11 -52 -144 -105 -295 -52 -151 -100 -284 -105 -295 -5 -11 -27 -72
-50 -135 -22 -63 -43 -122 -47 -130 -3 -8 -7 -19 -9 -25 -5 -16 -164 -448
-174 -470 -8 -19 -68 -176 -177 -460 -29 -77 -58 -149 -63 -160 -24 -52 -160
-401 -160 -412 0 -20 34 -32 74 -27 21 2 72 24 114 48 42 24 93 52 112 63 101
57 685 453 710 482 3 3 50 40 105 81 55 41 102 77 105 80 3 3 30 25 60 50 30
25 57 47 60 50 3 3 48 41 100 85 464 388 972 888 1296 1275 276 331 422 527
671 900 209 315 330 523 501 866 161 321 255 551 434 1059 68 191 200 580 206
606 2 6 16 57 32 113 24 84 80 307 96 380 27 132 44 217 49 246 3 19 8 42 10
50 2 8 6 31 9 50 3 19 7 44 10 55 2 11 7 42 10 68 4 27 9 57 11 66 2 10 6 42
10 72 4 30 8 56 10 59 1 3 6 32 9 65 4 33 9 71 11 85 2 14 6 48 9 75 4 28 8
66 11 85 2 19 7 64 10 100 3 36 7 75 9 87 27 137 27 1106 1 1323 -2 19 -7 71
-10 115 -7 90 -14 171 -21 230 -3 22 -7 58 -9 80 -4 46 -14 129 -20 165 -3 14
-7 50 -10 80 -3 30 -8 66 -10 80 -6 32 -12 73 -20 130 -8 56 -11 74 -29 180
-8 47 -17 101 -21 120 -3 19 -15 80 -26 135 -10 55 -21 111 -24 125 -11 61
-41 188 -82 350 -24 96 -48 191 -53 210 -62 265 -292 907 -433 1210 -12 25
-21 47 -22 50 -1 11 -179 362 -225 445 -141 253 -131 240 -125 180z"/>
<path d="M10706 22723 c-43 -109 -82 -207 -87 -218 -12 -28 -60 -160 -105
-285 -168 -474 -291 -957 -329 -1290 -4 -30 -8 -68 -10 -85 -2 -16 -6 -61 -9
-100 -4 -38 -9 -92 -11 -120 -2 -27 -7 -102 -10 -165 -13 -254 -23 -323 -67
-460 -19 -58 -21 -88 -21 -275 1 -204 12 -769 18 -870 14 -244 21 -348 30
-420 2 -22 7 -70 10 -107 3 -37 8 -77 10 -90 2 -13 6 -50 10 -83 3 -33 18
-132 31 -220 14 -88 27 -171 28 -185 4 -28 14 -83 21 -120 3 -14 7 -36 10 -50
3 -14 7 -36 10 -50 3 -14 7 -34 9 -45 41 -215 140 -590 223 -850 66 -206 201
-595 213 -610 4 -5 13 -28 20 -50 58 -182 331 -764 475 -1015 43 -74 86 -148
95 -165 10 -16 41 -68 70 -115 29 -47 62 -101 72 -120 27 -46 320 -486 355
-533 16 -20 42 -56 59 -79 52 -72 247 -333 254 -338 3 -3 29 -36 59 -74 71
-91 80 -103 121 -150 20 -23 58 -68 85 -101 28 -33 57 -67 65 -75 8 -9 51 -56
95 -105 82 -92 483 -496 590 -595 33 -31 103 -93 155 -139 52 -46 110 -97 128
-113 119 -105 387 -312 582 -448 304 -213 522 -346 872 -534 88 -47 112 -56
90 -34 -7 7 -12 20 -12 30 0 17 -66 210 -197 573 -35 99 -66 188 -68 198 -2 9
-6 21 -10 26 -3 5 -32 85 -64 178 -110 315 -302 859 -336 953 -39 106 -123
347 -300 855 -253 727 -397 1140 -485 1390 -21 61 -80 227 -130 370 -50 143
-98 277 -105 297 -8 21 -28 78 -44 126 -37 114 -120 351 -131 377 -5 11 -22
61 -39 110 -37 112 -95 280 -156 450 -26 72 -68 191 -95 265 -26 74 -69 194
-94 265 -26 72 -61 168 -78 215 -16 47 -34 94 -38 105 -10 24 -123 331 -156
425 -12 36 -82 225 -154 420 -72 195 -163 443 -202 550 -38 107 -88 245 -110
305 -22 61 -42 119 -45 130 -2 11 -9 29 -13 40 -16 36 -100 285 -197 580 -52
160 -97 297 -100 305 -4 8 -21 60 -38 115 -18 55 -63 186 -99 290 -37 105 -76
215 -87 246 -22 65 -225 633 -274 764 -18 50 -45 122 -59 160 -116 314 -212
565 -216 565 -3 0 -41 -89 -84 -197z"/>
<path d="M19289 18053 c-6 -16 -21 -55 -33 -88 -70 -182 -185 -488 -206 -550
-14 -41 -115 -309 -230 -610 -10 -27 -91 -234 -178 -460 -88 -225 -186 -477
-217 -560 -32 -82 -82 -213 -112 -290 -134 -345 -195 -501 -197 -510 -2 -5 -6
-17 -9 -25 -4 -8 -34 -87 -67 -175 -33 -88 -64 -169 -69 -180 -5 -11 -23 -58
-41 -105 -18 -47 -36 -94 -41 -105 -5 -11 -27 -69 -49 -130 -22 -60 -45 -119
-49 -130 -5 -11 -14 -33 -19 -50 -6 -16 -26 -73 -45 -125 -132 -358 -235 -643
-272 -750 -297 -860 -349 -1004 -558 -1550 -74 -193 -314 -779 -401 -979 -25
-58 -45 -106 -43 -107 8 -9 483 -158 537 -169 8 -2 69 -17 135 -34 162 -41
438 -99 551 -115 22 -4 49 -8 59 -10 17 -3 177 -28 270 -41 38 -6 269 -32 355
-40 326 -32 529 -40 980 -40 328 1 645 10 700 20 8 2 59 6 113 10 54 3 106 8
116 10 10 2 51 6 92 10 41 3 85 8 99 10 14 2 50 6 80 10 30 3 66 8 80 10 14 2
48 7 75 10 28 3 75 10 105 15 30 5 75 12 100 15 57 7 227 33 260 40 14 2 61
12 105 21 202 41 463 113 620 172 150 56 136 48 121 79 -20 41 -31 69 -61 158
-15 44 -49 143 -76 220 -27 77 -62 181 -79 230 -55 159 -130 373 -230 660 -96
276 -158 454 -267 770 -30 88 -62 180 -71 205 -9 25 -17 47 -18 50 0 3 -3 12
-7 20 -6 15 -144 411 -297 850 -45 129 -138 395 -206 590 -69 195 -127 362
-129 370 -2 8 -11 33 -19 55 -37 101 -383 1086 -505 1440 -48 137 -242 670
-286 785 -18 47 -52 135 -75 195 -51 133 -275 694 -299 750 -10 22 -31 70 -46
108 -15 37 -30 67 -32 67 -2 0 -8 -12 -14 -27z"/>
</g>
</svg>
